<?xml version="1.0" standalone="no"?>
<!DOCTYPE svg PUBLIC "-//W3C//DTD SVG 20010904//EN"
 "http://www.w3.org/TR/2001/REC-SVG-20010904/DTD/svg10.dtd">
<svg version="1.0" xmlns="http://www.w3.org/2000/svg"
 width="559.000000pt" height="211.000000pt" viewBox="0 0 559.000000 211.000000"
 preserveAspectRatio="xMidYMid meet">

<g transform="translate(0.000000,211.000000) scale(0.100000,-0.100000)"
fill="#000000" stroke="none">
<path d="M1084 1113 c-79 -170 -94 -205 -83 -201 6 2 38 65 72 141 33 75 64
134 69 129 4 -4 34 -65 66 -136 32 -72 64 -132 70 -134 6 -2 -19 63 -57 144
-37 82 -73 150 -80 152 -6 2 -31 -39 -57 -95z"/>
<path d="M1434 1201 c80 -6 90 -9 112 -34 42 -49 28 -108 -31 -133 -19 -8 -64
-14 -100 -14 l-65 0 0 -55 c0 -30 5 -55 10 -55 6 0 10 23 10 50 l0 50 63 0 64
0 34 -50 c19 -27 38 -50 42 -50 10 0 3 13 -29 57 -13 17 -24 35 -24 38 0 3 14
18 30 32 26 21 30 32 30 73 0 42 -4 52 -31 74 -28 24 -37 26 -117 24 l-87 -1
89 -6z"/>
<path d="M1673 1203 l57 -4 0 -144 c0 -90 4 -145 10 -145 6 0 10 55 10 145 l0
144 58 4 c31 2 1 3 -68 3 -69 0 -99 -1 -67 -3z"/>
<path d="M1920 1060 c0 -93 4 -150 10 -150 6 0 10 32 10 75 l0 75 105 0 105 0
0 -75 c0 -43 4 -75 10 -75 6 0 10 57 10 150 0 93 -4 150 -10 150 -6 0 -10 -30
-10 -70 l0 -70 -105 0 -105 0 0 70 c0 40 -4 70 -10 70 -6 0 -10 -57 -10 -150z"/>
<path d="M2288 1170 c2 -22 6 -40 8 -40 2 0 4 18 4 40 0 22 -3 40 -8 40 -4 0
-6 -18 -4 -40z"/>
<path d="M2508 1089 c-3 -118 -4 -121 -31 -145 -42 -36 -109 -34 -148 5 -26
27 -29 36 -31 103 l-1 73 -6 -55 c-12 -107 23 -160 105 -160 56 0 96 20 113
57 17 35 28 243 13 243 -6 0 -12 -46 -14 -121z"/>
<path d="M2724 1201 c76 -6 91 -10 107 -30 20 -25 25 -81 9 -111 -14 -26 -63
-40 -136 -40 l-64 0 2 -42 1 -43 4 38 4 37 67 0 67 0 34 -50 c19 -28 36 -48
39 -46 2 3 -10 25 -28 49 l-31 44 35 35 c48 48 49 87 2 134 -34 34 -35 34
-117 32 l-84 -1 89 -6z"/>
<path d="M3128 1203 c12 -2 32 -2 45 0 12 2 2 4 -23 4 -25 0 -35 -2 -22 -4z"/>
</g>
</svg>
